<?xml version="1.0" standalone="no"?>
<!DOCTYPE svg PUBLIC "-//W3C//DTD SVG 20010904//EN"
 "http://www.w3.org/TR/2001/REC-SVG-20010904/DTD/svg10.dtd">
<svg version="1.0" xmlns="http://www.w3.org/2000/svg"
 width="2600.000000pt" height="2600.000000pt" viewBox="0 0 2600.000000 2600.000000"
 preserveAspectRatio="xMidYMid meet">
<metadata>
Created by potrace 1.11, written by Peter Selinger 2001-2013
</metadata>
<g transform="translate(0.000000,2600.000000) scale(0.100000,-0.100000)"
fill="#000000" stroke="none">
<path d="M13278 20812 c-32 -21 -149 -93 -260 -161 -112 -68 -248 -152 -303
-186 -141 -87 -415 -255 -447 -274 -15 -9 -96 -58 -180 -110 -84 -52 -378
-233 -653 -401 -275 -169 -689 -423 -920 -565 -231 -142 -512 -314 -624 -382
-112 -68 -220 -135 -240 -148 -20 -12 -225 -139 -456 -280 -231 -141 -433
-266 -450 -276 -16 -11 -169 -105 -340 -209 -170 -104 -314 -193 -320 -197 -5
-5 -17 -12 -25 -16 -15 -7 -64 -37 -153 -92 -27 -17 -234 -143 -460 -282 -227
-139 -425 -261 -442 -272 -16 -10 -129 -80 -250 -154 -329 -201 -1038 -636
-1138 -698 -48 -30 -95 -58 -105 -64 -10 -5 -40 -24 -67 -41 -65 -41 -520
-320 -566 -348 -20 -11 -107 -65 -195 -119 -87 -54 -168 -104 -179 -110 -11
-7 -42 -26 -70 -43 -27 -17 -106 -65 -175 -107 -69 -42 -130 -80 -135 -85 -6
-5 -15 -11 -20 -13 -10 -4 -101 -58 -151 -89 -13 -8 -93 -57 -176 -109 -84
-51 -199 -122 -255 -157 -57 -35 -107 -64 -112 -64 -5 0 -11 -4 -13 -8 -1 -5
-51 -38 -110 -73 -60 -35 -280 -170 -490 -299 -210 -129 -390 -239 -400 -245
-9 -5 -79 -48 -154 -95 -76 -47 -156 -96 -178 -109 -23 -12 -48 -29 -57 -37
-8 -8 -19 -14 -22 -14 -4 0 -31 -15 -60 -34 -28 -19 -194 -120 -367 -226 -173
-106 -357 -219 -408 -251 -51 -33 -95 -59 -98 -59 -3 0 -17 -9 -32 -19 -24
-17 -415 -258 -496 -306 -123 -73 -474 -290 -472 -293 2 -1 56 23 122 54 65
31 146 69 179 84 33 15 101 47 150 70 50 23 126 59 170 80 44 21 159 75 255
120 270 127 339 160 415 195 39 18 113 53 165 77 52 25 120 57 150 70 30 14
98 46 150 71 114 54 247 117 350 164 41 20 113 53 160 75 47 22 117 55 155 73
39 18 115 54 170 80 55 26 134 63 175 82 41 19 111 52 155 73 44 21 231 109
415 195 184 87 369 174 410 193 41 20 77 36 80 37 3 1 41 18 85 39 44 21 116
55 160 76 158 74 242 113 340 160 55 26 132 62 170 80 111 52 272 128 519 244
76 36 140 66 142 66 2 0 73 34 159 75 86 41 158 75 160 75 2 0 74 34 160 75
87 41 159 75 160 75 2 0 65 29 140 65 133 64 227 108 370 175 39 18 130 61
204 96 73 35 135 64 137 64 3 0 70 32 150 70 81 39 148 70 149 70 2 0 65 30
142 66 76 36 170 81 208 99 39 18 115 54 170 80 55 26 156 73 225 105 69 32
175 81 235 110 61 29 220 104 355 167 135 64 279 132 320 151 41 20 77 36 80
37 3 0 46 20 95 44 50 24 155 74 235 111 136 63 212 99 420 198 47 22 119 55
160 75 125 58 387 181 524 246 70 34 130 61 132 61 1 0 70 32 151 71 81 39
168 80 193 92 25 12 47 22 50 23 5 1 76 34 308 145 68 32 125 59 127 59 1 0
78 36 169 80 92 44 169 80 171 80 2 0 69 32 150 70 81 39 148 70 150 70 2 0
63 29 137 64 226 108 311 148 363 171 28 13 104 48 170 80 66 31 181 85 255
120 175 81 281 131 405 190 55 26 127 60 160 75 l60 27 85 -41 c47 -23 119
-56 160 -75 41 -19 138 -65 215 -102 78 -36 165 -78 195 -92 30 -14 114 -53
185 -87 72 -34 204 -97 295 -140 91 -43 215 -101 275 -130 61 -29 144 -68 185
-87 41 -20 239 -113 440 -208 463 -219 511 -242 645 -305 61 -29 142 -67 180
-85 39 -18 120 -56 180 -85 61 -29 142 -67 180 -85 39 -18 124 -59 190 -90 66
-31 147 -70 180 -85 33 -15 110 -51 170 -80 203 -97 320 -152 380 -180 81 -38
196 -92 550 -260 165 -78 318 -150 340 -160 37 -17 138 -64 365 -173 52 -25
138 -65 190 -90 112 -52 222 -105 419 -198 79 -38 145 -69 146 -69 2 0 79 -36
172 -81 92 -45 186 -89 208 -99 22 -10 254 -119 515 -242 261 -124 509 -241
550 -261 41 -19 129 -61 195 -92 115 -55 193 -92 370 -175 99 -46 220 -103
345 -162 52 -25 176 -84 275 -130 222 -105 319 -151 460 -218 61 -29 142 -67
180 -85 82 -38 218 -103 365 -172 58 -28 125 -60 150 -71 25 -11 125 -59 224
-106 98 -47 179 -86 181 -86 1 0 72 -33 156 -74 85 -40 179 -85 209 -98 50
-23 250 -118 546 -258 222 -105 824 -390 895 -423 41 -19 126 -59 189 -89 185
-89 249 -118 255 -118 3 0 5 17 3 37 -3 36 -7 40 -128 115 -69 42 -136 83
-150 91 -25 13 -292 176 -405 247 -72 45 -388 238 -800 490 -165 100 -316 193
-335 205 -19 13 -287 177 -595 365 -608 371 -636 388 -710 435 -27 18 -196
121 -375 230 -495 302 -761 465 -807 494 -84 53 -385 236 -1398 856 -286 175
-536 328 -555 340 -19 13 -228 141 -465 285 -236 144 -497 304 -580 355 -245
151 -324 199 -353 216 -15 9 -315 193 -667 409 -352 216 -652 400 -667 409
-15 9 -123 75 -239 146 -116 72 -228 140 -248 151 -20 12 -133 81 -251 154
-118 73 -345 212 -505 310 -159 97 -450 275 -645 395 -599 367 -688 422 -1225
750 -286 175 -527 326 -537 336 -9 11 -18 19 -20 18 -1 0 -29 -17 -60 -37z"/>
<path d="M21067 17892 c-16 -3 -17 -34 -17 -351 l0 -348 180 1 179 0 -5 116
-5 115 1513 0 1512 -1 7 -29 c3 -17 41 -165 83 -330 43 -165 79 -307 81 -315
2 -8 35 -141 75 -295 39 -154 73 -287 75 -295 2 -8 15 -60 28 -115 14 -55 28
-107 31 -115 3 -8 8 -26 10 -40 3 -14 25 -106 51 -205 81 -317 175 -679 183
-710 5 -17 8 631 8 1444 l-1 1473 -1986 2 c-1092 0 -1993 0 -2002 -2z"/>
<path d="M13270 15914 l0 -1104 60 0 59 0 0 1103 0 1103 -59 1 -60 1 0 -1104z"/>
<path d="M9382 16356 l-42 -34 102 -135 c57 -74 130 -170 163 -214 34 -43 178
-231 320 -418 143 -187 263 -344 267 -350 5 -5 67 -86 138 -180 72 -93 158
-207 193 -252 34 -45 71 -94 82 -109 68 -92 197 -254 203 -254 4 0 25 15 46
33 l39 34 -31 44 c-17 24 -80 107 -139 185 -59 77 -142 185 -183 240 -41 54
-77 101 -80 104 -3 3 -31 39 -62 80 -30 41 -163 215 -294 387 -132 171 -335
438 -453 592 -118 155 -217 281 -220 281 -3 0 -25 -15 -49 -34z"/>
<path d="M16988 15931 c-138 -180 -440 -573 -836 -1089 -79 -103 -154 -200
-167 -217 -12 -16 -86 -113 -164 -214 l-141 -183 46 -35 c38 -30 48 -33 59
-22 7 8 133 172 280 364 148 193 312 406 365 475 458 593 800 1044 800 1056 0
8 -4 14 -8 14 -5 0 -22 11 -38 25 -16 14 -32 25 -36 25 -3 0 -75 -90 -160
-199z"/>
<path d="M11575 15718 c-27 -11 -51 -21 -53 -23 -3 -3 81 -225 114 -300 7 -16
88 -219 179 -450 92 -231 169 -425 171 -430 2 -6 -51 -28 -118 -49 -260 -82
-573 -217 -778 -333 -335 -192 -593 -383 -847 -631 l-44 -43 -47 38 c-26 20
-86 69 -133 108 -47 38 -102 84 -123 100 -38 30 -244 196 -321 260 -22 18
-164 133 -315 255 l-274 222 -38 -44 -37 -43 22 -20 c20 -19 361 -296 522
-424 69 -55 90 -73 131 -108 12 -10 120 -98 240 -195 121 -97 235 -190 254
-207 l35 -29 -41 -44 c-33 -34 -204 -242 -242 -293 -107 -145 -218 -326 -319
-522 l-83 -162 30 -16 c81 -42 74 -46 132 73 133 273 316 551 516 782 85 99
306 316 407 401 435 365 910 619 1470 787 90 27 295 78 353 88 22 4 122 22
164 29 64 12 266 35 363 42 201 14 663 7 761 -11 10 -2 48 -7 84 -11 36 -4 72
-9 80 -10 8 -1 35 -6 60 -10 94 -14 290 -55 400 -84 106 -27 369 -109 415
-130 11 -5 40 -17 65 -27 334 -133 638 -302 915 -509 149 -112 216 -167 324
-270 242 -229 397 -412 569 -672 96 -142 282 -489 282 -523 0 -19 20 -19 66 1
27 11 50 22 52 24 2 2 -30 74 -72 159 -111 229 -259 467 -408 655 -32 40 -58
77 -58 81 0 4 252 209 560 455 309 246 560 450 558 454 -13 28 -55 81 -65 81
-6 0 -38 -21 -71 -47 -33 -27 -75 -60 -93 -75 -19 -14 -178 -141 -354 -282
-176 -141 -347 -277 -380 -303 -33 -26 -62 -50 -65 -53 -3 -3 -34 -27 -70 -55
-36 -27 -73 -57 -83 -66 -18 -16 -26 -10 -170 136 -169 170 -264 254 -412 366
-268 203 -561 374 -840 493 -60 26 -121 52 -135 58 -47 20 -65 27 -166 62 -56
20 -106 36 -112 36 -26 0 -20 26 26 113 27 50 80 151 117 222 37 72 84 162
105 200 20 39 72 138 115 220 141 272 155 298 164 309 5 6 16 28 25 49 l15 38
-32 15 c-17 8 -40 20 -49 26 -9 7 -19 10 -21 8 -4 -5 -32 -58 -162 -305 -32
-60 -79 -150 -105 -200 -26 -49 -78 -148 -115 -220 -37 -71 -95 -182 -128
-245 -34 -63 -68 -130 -77 -148 -17 -39 -3 -39 -198 7 -168 40 -325 68 -492
87 -25 3 -56 7 -70 9 -187 28 -740 23 -954 -9 -17 -2 -58 -8 -91 -12 -60 -7
-78 -9 -125 -19 -14 -2 -41 -7 -60 -10 -19 -3 -69 -13 -110 -21 -41 -9 -82
-17 -91 -19 -9 -2 -33 -8 -53 -13 -28 -8 -36 -7 -36 2 0 7 -6 26 -14 42 -8 16
-62 151 -121 299 -201 507 -337 850 -339 851 0 1 -23 -7 -51 -18z"/>
<path d="M6551 13858 c-12 -28 -18 -54 -14 -58 5 -3 67 -30 138 -59 72 -29
139 -57 150 -61 11 -5 126 -52 255 -105 482 -197 556 -227 585 -240 81 -35
1352 -554 1363 -557 8 -2 23 18 37 49 l23 52 -36 15 c-241 98 -504 206 -772
316 -179 72 -354 145 -390 160 -36 16 -101 43 -145 60 -44 17 -93 38 -110 45
-16 8 -77 32 -135 55 -58 23 -118 48 -135 55 -16 7 -181 75 -365 150 -184 75
-354 145 -377 156 -24 10 -44 19 -47 19 -2 0 -13 -23 -25 -52z"/>
<path d="M19760 13776 c-52 -24 -115 -52 -140 -63 -25 -11 -108 -49 -185 -83
-77 -34 -165 -73 -195 -87 -30 -14 -140 -64 -245 -110 -104 -47 -212 -95 -240
-108 -27 -12 -72 -32 -100 -45 -27 -12 -113 -51 -190 -85 -77 -35 -165 -74
-195 -88 -30 -13 -118 -53 -195 -87 -77 -34 -173 -78 -213 -96 -41 -19 -75
-34 -78 -34 -2 0 -41 -17 -86 -38 -46 -21 -147 -67 -224 -102 l-141 -64 23
-50 c15 -32 29 -50 39 -48 8 1 72 29 142 61 70 32 256 116 413 186 157 70 308
138 335 150 28 13 113 51 190 85 77 34 169 75 205 92 36 17 146 66 245 110
201 89 238 106 343 154 41 19 75 34 77 34 2 0 41 17 87 38 46 22 172 78 280
126 192 86 197 89 188 112 -11 28 -40 84 -43 83 -1 0 -45 -19 -97 -43z"/>
<path d="M13274 13617 c-179 -49 -1255 -349 -1299 -362 -48 -14 -276 -78 -340
-95 -16 -4 -154 -42 -305 -85 -151 -42 -419 -117 -594 -166 -175 -49 -321 -91
-323 -93 -6 -6 28 -16 489 -147 l368 -104 0 -217 c0 -120 -4 -218 -8 -218 -13
0 -47 -32 -60 -57 -13 -23 -3 -65 17 -78 7 -4 11 -58 11 -147 0 -135 1 -140
20 -135 11 3 20 2 20 -2 0 -10 -40 -307 -45 -340 -2 -13 -7 -45 -11 -70 -3
-25 -8 -57 -10 -71 -2 -14 -7 -51 -11 -83 -3 -32 -9 -60 -14 -62 -4 -3 -135
57 -291 134 -364 178 -802 394 -1243 611 -339 167 -590 290 -1145 562 -146 72
-295 145 -331 164 l-67 33 -115 -147 c-64 -81 -125 -158 -136 -172 -19 -24
-246 -311 -296 -375 -27 -35 -529 -672 -650 -825 -45 -58 -113 -143 -149 -190
-37 -47 -72 -92 -79 -100 -7 -8 -55 -69 -107 -135 -52 -66 -135 -172 -185
-235 -99 -125 -203 -258 -393 -499 -67 -86 -128 -163 -135 -171 -7 -8 -28 -35
-47 -60 -19 -25 -37 -47 -40 -50 -3 -3 -34 -41 -68 -85 -34 -44 -98 -125 -141
-180 -44 -55 -109 -138 -146 -185 -85 -110 -106 -136 -188 -238 -37 -47 -66
-86 -64 -88 4 -4 365 -157 497 -211 82 -33 121 -50 185 -78 45 -19 134 -56
300 -125 145 -60 179 -74 248 -104 17 -8 185 -78 372 -156 187 -78 353 -147
370 -154 16 -7 44 -19 60 -26 340 -141 587 -245 613 -256 63 -28 101 -44 462
-194 201 -84 464 -194 585 -245 121 -50 315 -132 430 -180 212 -88 263 -110
300 -126 11 -5 205 -85 430 -179 226 -94 423 -178 439 -186 16 -8 33 -14 37
-14 5 0 32 -11 61 -24 29 -13 94 -41 143 -61 50 -21 104 -43 120 -51 17 -7
113 -47 215 -89 102 -43 200 -83 218 -91 17 -8 47 -20 65 -28 47 -20 737 -308
842 -351 50 -21 108 -45 130 -55 22 -10 177 -75 345 -145 297 -124 354 -148
395 -166 11 -5 63 -27 115 -48 52 -22 85 -40 72 -41 -12 0 -286 101 -610 224
-323 123 -760 290 -972 371 -212 81 -506 193 -655 250 -148 57 -385 147 -525
200 -140 53 -264 100 -275 105 -11 5 -173 67 -360 139 -187 71 -520 198 -740
282 -220 84 -440 168 -490 186 -476 181 -854 325 -870 333 -11 5 -56 22 -100
38 -151 56 -1140 433 -1160 442 -11 5 -121 48 -245 94 l-225 86 -21 -23 c-12
-12 -155 -193 -319 -402 -164 -209 -304 -387 -311 -395 -15 -18 -79 -1 731
-200 753 -186 1198 -296 1940 -480 937 -232 1138 -282 1155 -285 8 -2 62 -15
120 -30 58 -15 112 -28 120 -30 8 -2 209 -51 445 -110 237 -58 610 -151 830
-205 1623 -400 1953 -483 1895 -476 -30 4 -1343 249 -1875 351 -99 19 -362 68
-585 110 -484 91 -1579 297 -2745 516 -1300 245 -1496 281 -1500 277 -14 -16
-584 -832 -582 -834 2 -2 95 -10 217 -19 39 -3 100 -7 138 -10 111 -9 611 -44
702 -50 47 -3 108 -8 135 -10 28 -3 91 -7 140 -10 50 -3 108 -7 130 -10 22 -2
85 -7 140 -10 55 -3 125 -8 155 -11 30 -2 246 -18 480 -34 234 -16 452 -32
485 -35 33 -3 130 -9 215 -15 85 -5 180 -12 210 -15 30 -2 91 -7 135 -10 80
-5 169 -12 280 -20 33 -2 101 -7 150 -10 50 -3 110 -8 135 -10 25 -2 86 -7
135 -10 50 -3 115 -8 145 -10 30 -2 93 -7 140 -10 47 -3 110 -8 140 -10 30 -3
154 -12 275 -20 121 -8 247 -17 280 -20 33 -3 161 -12 285 -20 124 -9 248 -17
275 -20 28 -2 91 -6 140 -10 50 -3 115 -8 145 -10 56 -5 128 -10 280 -20 47
-3 105 -8 130 -10 25 -2 88 -7 140 -10 52 -3 115 -8 140 -10 25 -2 92 -7 150
-11 237 -16 262 -22 70 -18 -183 4 -261 6 -680 19 -91 2 -255 7 -365 10 -110
3 -265 7 -345 10 -80 3 -237 7 -350 10 -113 3 -270 7 -350 10 -80 3 -237 7
-350 10 -113 3 -277 7 -365 10 -88 3 -245 7 -350 10 -104 3 -260 7 -345 10
-85 3 -236 7 -335 10 -272 7 -554 15 -705 20 -74 2 -243 7 -375 10 -132 4
-283 8 -335 10 -52 2 -210 6 -350 10 -140 4 -300 8 -355 10 -478 16 -655 17
-656 4 0 -8 -3 -104 -5 -214 -2 -110 -5 -228 -7 -263 l-3 -62 620 5 c897 7
1749 15 2401 20 604 5 1523 12 2455 20 311 3 880 8 1265 12 863 8 2793 8 4095
0 536 -4 1448 -9 2025 -13 578 -3 1309 -7 1625 -9 512 -3 1417 -6 1478 -5 22
0 23 1 18 93 -3 50 -8 166 -12 257 -3 91 -8 168 -10 172 -3 4 -39 5 -82 3 -42
-2 -178 -6 -302 -10 -124 -3 -286 -8 -360 -10 -126 -4 -250 -8 -680 -20 -96
-3 -238 -8 -315 -10 -77 -2 -230 -7 -340 -10 -110 -3 -263 -7 -340 -10 -77 -2
-232 -7 -345 -10 -113 -3 -261 -8 -330 -10 -69 -2 -224 -7 -345 -10 -121 -3
-269 -8 -330 -10 -60 -2 -207 -7 -325 -10 -118 -3 -271 -8 -340 -10 -69 -3
-222 -7 -340 -10 -118 -3 -269 -7 -335 -10 -66 -2 -219 -7 -340 -10 -121 -3
-269 -8 -330 -10 -60 -2 -209 -7 -330 -10 -121 -3 -276 -8 -345 -10 -469 -16
-601 -12 -290 9 52 4 120 9 150 11 30 2 93 6 140 10 47 3 110 7 140 10 30 2
98 7 150 11 52 3 111 7 130 9 19 2 85 6 145 10 61 3 124 8 140 10 17 2 75 7
130 10 55 3 120 8 145 10 25 2 86 7 135 10 50 3 115 7 145 10 53 4 107 8 285
20 44 4 105 8 135 10 30 2 96 6 145 10 50 3 113 8 140 10 28 3 86 7 130 10 44
3 109 7 145 10 36 2 103 7 150 10 47 3 105 8 130 10 25 2 88 7 140 10 52 4
115 8 140 10 25 2 88 7 140 10 52 4 111 8 130 10 19 2 85 6 145 10 61 4 126 8
145 10 19 2 82 6 140 10 58 4 123 9 145 11 22 1 83 5 135 9 52 3 113 7 135 10
22 2 90 7 150 10 61 3 124 8 140 10 17 2 75 6 130 10 55 3 118 8 140 10 22 2
87 7 145 11 58 3 121 7 140 9 19 2 82 6 140 10 58 3 119 8 135 10 17 2 75 6
130 10 55 3 123 8 150 10 28 3 86 7 130 10 250 16 373 25 420 30 22 2 90 7
150 11 61 3 126 7 145 9 19 2 73 6 120 9 47 4 117 9 155 13 39 3 83 5 99 4 20
-1 27 2 23 12 -5 13 -183 268 -475 681 l-105 148 -36 -5 c-20 -3 -409 -76
-866 -162 -456 -86 -1129 -212 -1495 -281 -366 -69 -892 -168 -1170 -220 -278
-52 -590 -111 -695 -130 -104 -20 -199 -38 -210 -40 -31 -6 -232 -44 -315 -59
-41 -7 -266 -50 -500 -94 -234 -44 -436 -82 -450 -85 -158 -28 -541 -100 -595
-111 -183 -38 -457 -86 -461 -82 -3 3 12 8 33 12 21 3 136 31 256 61 119 29
227 56 240 59 12 2 184 45 382 94 422 105 974 241 995 246 8 2 80 20 160 40
80 20 152 38 160 40 8 2 155 38 325 80 171 42 317 78 325 80 8 2 97 24 197 49
100 25 193 48 205 50 13 3 23 5 23 6 0 1 27 8 60 16 76 17 60 14 320 78 121
30 429 106 685 170 256 63 713 176 1015 251 303 75 667 165 810 200 143 35
405 100 582 144 177 44 332 83 345 85 121 26 208 51 208 60 0 6 -11 25 -25 41
-13 17 -72 91 -130 165 -58 74 -114 144 -123 155 -9 11 -57 72 -107 135 -49
63 -92 117 -95 120 -4 3 -35 43 -71 89 -35 46 -71 92 -80 104 -18 22 -23 20
-434 -140 -49 -19 -126 -48 -170 -64 -44 -16 -89 -34 -100 -39 -11 -5 -193
-75 -405 -155 -212 -80 -394 -149 -405 -154 -11 -6 -76 -31 -145 -56 -69 -26
-201 -76 -295 -112 -93 -35 -206 -78 -250 -95 -44 -16 -89 -34 -100 -39 -11
-5 -51 -20 -90 -35 -127 -47 -360 -135 -380 -144 -11 -5 -96 -38 -190 -74 -93
-35 -361 -137 -595 -226 -612 -233 -734 -280 -1035 -395 -148 -57 -328 -126
-400 -153 -164 -62 -531 -202 -740 -282 -88 -34 -225 -86 -305 -116 -80 -30
-154 -58 -165 -63 -18 -9 -441 -171 -590 -226 -56 -21 -134 -51 -295 -111 -36
-14 -82 -32 -102 -41 -39 -17 -147 -27 -132 -13 5 4 38 20 74 35 36 14 79 33
97 41 17 8 34 14 37 14 3 0 25 9 49 19 23 11 114 49 202 85 88 37 183 76 210
88 72 30 89 37 320 133 116 48 224 93 240 100 17 8 352 147 745 310 393 163
734 305 757 316 24 10 45 19 48 19 4 0 25 9 48 19 23 11 135 58 249 104 114
47 222 92 240 100 83 38 306 127 316 127 7 0 12 4 12 8 0 5 6 9 13 9 6 0 32 9
57 20 25 12 70 31 100 43 30 12 69 28 85 35 17 7 260 108 540 225 281 116 524
217 540 225 17 7 167 70 335 140 424 176 471 195 505 210 17 7 82 34 145 60
63 25 133 54 155 64 22 10 130 55 240 101 215 88 488 202 545 226 19 9 44 19
55 24 22 9 297 124 495 205 459 190 670 280 670 284 0 4 -41 58 -90 121 -95
120 -100 126 -140 176 -14 17 -36 45 -50 64 -14 18 -77 99 -141 179 -64 80
-288 364 -498 631 -210 267 -387 492 -394 500 -7 8 -26 33 -42 55 -17 22 -38
49 -47 60 -18 22 -157 198 -343 434 -66 83 -169 214 -228 289 -60 75 -119 151
-132 167 -12 17 -80 102 -149 190 -173 219 -158 199 -315 400 -78 99 -147 187
-154 195 -7 8 -55 69 -106 135 -52 66 -97 124 -101 128 -7 8 -117 -45 -895
-428 -198 -97 -443 -217 -545 -267 -102 -49 -192 -93 -200 -99 -8 -5 -24 -13
-35 -18 -11 -5 -168 -82 -350 -171 -874 -430 -1370 -674 -1800 -885 -143 -70
-442 -217 -665 -327 -223 -110 -443 -218 -490 -241 -47 -22 -86 -42 -88 -43
-2 -1 -5 -46 -17 -279 -3 -55 -7 -145 -11 -200 -3 -55 -7 -134 -9 -175 -2 -41
-6 -127 -10 -190 -3 -63 -8 -151 -10 -195 -5 -125 -27 -533 -40 -775 -3 -47
-7 -139 -10 -205 -3 -66 -8 -147 -10 -180 -2 -33 -7 -127 -10 -209 -4 -82 -8
-167 -10 -190 -2 -22 -6 -106 -10 -186 -3 -80 -8 -172 -10 -205 -2 -33 -7
-114 -10 -180 -3 -66 -8 -150 -10 -186 -2 -36 -7 -131 -10 -210 -4 -79 -9
-164 -10 -189 -3 -40 -17 -326 -18 -357 0 -7 -4 -13 -9 -13 -4 0 -8 24 -9 53
0 28 -2 88 -4 132 -1 44 -6 154 -9 245 -4 91 -9 203 -11 250 -2 47 -7 157 -10
245 -4 88 -8 203 -10 255 -2 52 -7 160 -10 240 -3 80 -7 190 -10 245 -3 55 -7
161 -10 235 -5 147 -13 335 -20 500 -2 58 -7 164 -10 235 -18 438 -25 623 -30
735 -2 52 -7 169 -11 260 -3 91 -8 199 -9 240 -2 41 -4 114 -5 161 l-2 87
-445 218 c-244 121 -602 298 -796 394 l-352 175 -26 185 c-15 102 -36 248 -48
325 -11 77 -23 163 -26 190 -4 28 -10 67 -15 88 -7 33 -6 37 11 37 18 0 19 9
19 133 0 121 2 136 20 152 29 27 27 80 -6 110 -14 13 -35 27 -45 30 -18 6 -19
19 -19 191 0 113 4 184 10 184 5 0 189 -51 407 -114 219 -62 407 -116 418
-119 11 -3 61 -17 110 -32 50 -14 113 -33 140 -40 28 -8 104 -29 170 -48 658
-192 601 -178 677 -157 35 10 245 70 468 135 223 64 743 213 1155 332 413 118
856 246 985 283 129 37 228 70 220 74 -14 5 -494 142 -650 186 -36 10 -105 29
-155 43 -49 15 -137 39 -195 55 -58 17 -186 53 -285 82 -99 28 -202 58 -230
65 -27 8 -304 86 -615 175 -311 88 -601 171 -646 184 l-80 22 -70 -19z m71
-7672 c-2 -36 -10 -39 -13 -5 -1 17 1 30 6 30 4 0 7 -11 7 -25z m-708 -371
c-3 -3 -12 -4 -19 -1 -8 3 -5 6 6 6 11 1 17 -2 13 -5z"/>
<path d="M14820 12046 c-3 -3 -59 -17 -125 -31 -66 -14 -147 -32 -180 -40 -64
-16 -543 -121 -585 -128 -14 -3 -61 -14 -105 -25 -44 -10 -170 -38 -280 -62
l-200 -42 -695 155 c-382 85 -713 158 -736 161 l-41 7 2 -198 c1 -161 4 -204
17 -228 83 -154 389 -298 773 -364 100 -18 137 -23 245 -35 229 -27 745 -27
913 -1 12 2 54 6 92 10 39 4 79 9 90 11 11 2 45 8 75 14 84 14 110 20 171 35
263 68 452 175 545 311 l36 53 2 178 c2 167 -3 231 -14 219z"/>
</g>
</svg>
